<?xml version="1.0" encoding="iso-8859-1"?>
<!-- Generator: Adobe Illustrator 19.0.0, SVG Export Plug-In . SVG Version: 6.00 Build 0)  -->
<svg version="1.1" id="Capa_1" xmlns="http://www.w3.org/2000/svg" xmlns:xlink="http://www.w3.org/1999/xlink" x="0px" y="0px"
	 viewBox="0 0 512 512" style="enable-background:new 0 0 512 512;" xml:space="preserve">
<path style="fill:#90CAF9;" d="M448,304h-80c-26.51,0-48,21.49-48,48v64c0,44.183-35.817,80-80,80c-26.51,0-48-21.49-48-48v-44.544
	c-0.016-20.295-5.546-40.204-16-57.6l-11.104-18.496c-8.686-14.434-24.274-23.29-41.12-23.36H112c-8.837,0-16-7.163-16-16V80
	c-0.001-5.625,2.951-10.837,7.776-13.728l60.992-36.576c14.904-8.977,31.977-13.713,49.376-13.696h197.984
	c16.962,0.056,33.219,6.793,45.248,18.752l35.872,35.872C505.207,82.653,511.944,98.91,512,115.872V240
	C512,275.346,483.346,304,448,304z"/>
<path style="fill:#1976D2;" d="M16,16h96c8.837,0,16,7.163,16,16v256c0,8.837-7.163,16-16,16H16c-8.837,0-16-7.163-16-16V32
	C0,23.163,7.163,16,16,16z"/>
<path d="M240,496c-26.51,0-48-21.49-48-48v-44.544c-0.016-20.295-5.546-40.204-16-57.6l-11.104-18.496
	c-8.686-14.434-24.274-23.29-41.12-23.36H112c-8.837,0-16-7.163-16-16V80c-0.001-5.625,2.951-10.837,7.776-13.728l60.992-36.576
	c14.904-8.977,31.977-13.713,49.376-13.696h197.984c16.962,0.056,33.219,6.793,45.248,18.752l35.872,35.872
	c11.971,12.021,18.71,28.283,18.752,45.248V240c0,35.346-28.654,64-64,64h-80c-26.51,0-48,21.49-48,48v64
	C320,460.183,284.183,496,240,496z M128,272c26.534,1.471,50.624,15.966,64.352,38.72l11.136,18.496
	c13.426,22.436,20.515,48.094,20.512,74.24V448c0,8.837,7.163,16,16,16c26.51,0,48-21.49,48-48v-64c0-44.183,35.817-80,80-80h80
	c17.673,0,32-14.327,32-32V115.872c-0.033-8.48-3.401-16.607-9.376-22.624l-35.872-35.872c-6-6.002-14.138-9.374-22.624-9.376
	H214.144c-11.589,0.006-22.959,3.158-32.896,9.12L128,89.056V272z"/>
<path d="M112,304H16c-8.837,0-16-7.163-16-16V32c0-8.837,7.163-16,16-16h96c8.837,0,16,7.163,16,16v256
	C128,296.837,120.837,304,112,304z M32,272h64V48H32V272z"/>
<g>
</g>
<g>
</g>
<g>
</g>
<g>
</g>
<g>
</g>
<g>
</g>
<g>
</g>
<g>
</g>
<g>
</g>
<g>
</g>
<g>
</g>
<g>
</g>
<g>
</g>
<g>
</g>
<g>
</g>
</svg>
